<svg width="24" height="24" viewBox="0 0 24 24" fill="none" xmlns="http://www.w3.org/2000/svg">
<path fill-rule="evenodd" clip-rule="evenodd" d="M3 22.5L21 22.5C21.3978 22.5 21.7794 22.342 22.0607 22.0607C22.342 21.7794 22.5 21.3978 22.5 21L22.5 3C22.5 2.60218 22.342 2.22064 22.0607 1.93934C21.7794 1.65804 21.3978 1.5 21 1.5L3 1.5C2.60218 1.5 2.22064 1.65804 1.93934 1.93934C1.65804 2.22064 1.5 2.60218 1.5 3L1.5 21C1.5 21.3978 1.65804 21.7794 1.93934 22.0607C2.22064 22.342 2.60218 22.5 3 22.5ZM21 24C21.7956 24 22.5587 23.6839 23.1213 23.1213C23.6839 22.5587 24 21.7956 24 21L24 3C24 2.20435 23.6839 1.44129 23.1213 0.87868C22.5587 0.316071 21.7956 0 21 0L3 0C2.20435 0 1.44129 0.316071 0.87868 0.87868C0.316071 1.44129 0 2.20435 0 3L0 21C0 21.7956 0.316071 22.5587 0.87868 23.1213C1.44129 23.6839 2.20435 24 3 24L21 24Z" fill="white"/>
<path fill-rule="evenodd" clip-rule="evenodd" d="M18.684 7.9425C18.6247 7.81068 18.5287 7.69879 18.4073 7.62029C18.286 7.54179 18.1445 7.50002 18 7.5L6 7.5C5.85543 7.49996 5.71393 7.54171 5.59253 7.62022C5.47113 7.69872 5.37501 7.81064 5.31573 7.9425C5.25646 8.07436 5.23656 8.22055 5.25843 8.36345C5.2803 8.50636 5.343 8.6399 5.439 8.748L11.439 15.498C11.5094 15.5773 11.5958 15.6408 11.6925 15.6843C11.7892 15.7277 11.894 15.7502 12 15.7502C12.106 15.7502 12.2108 15.7277 12.3075 15.6843C12.4042 15.6408 12.4906 15.5773 12.561 15.498L18.561 8.748C18.6569 8.63987 18.7196 8.50632 18.7414 8.36341C18.7633 8.22051 18.7433 8.07434 18.684 7.9425V7.9425Z" fill="white"/>
</svg>
