<svg width="24" height="24" viewBox="0 0 24 24" fill="none" xmlns="http://www.w3.org/2000/svg">
<path fill-rule="evenodd" clip-rule="evenodd" d="M21 1.5H3C2.60218 1.5 2.22064 1.65804 1.93934 1.93934C1.65804 2.22064 1.5 2.60218 1.5 3V21C1.5 21.3978 1.65804 21.7794 1.93934 22.0607C2.22064 22.342 2.60218 22.5 3 22.5H21C21.3978 22.5 21.7794 22.342 22.0607 22.0607C22.342 21.7794 22.5 21.3978 22.5 21V3C22.5 2.60218 22.342 2.22064 22.0607 1.93934C21.7794 1.65804 21.3978 1.5 21 1.5ZM3 0C2.20435 0 1.44129 0.316071 0.87868 0.87868C0.316071 1.44129 0 2.20435 0 3L0 21C0 21.7956 0.316071 22.5587 0.87868 23.1213C1.44129 23.6839 2.20435 24 3 24H21C21.7956 24 22.5587 23.6839 23.1213 23.1213C23.6839 22.5587 24 21.7956 24 21V3C24 2.20435 23.6839 1.44129 23.1213 0.87868C22.5587 0.316071 21.7956 0 21 0L3 0Z" fill="white"/>
<path fill-rule="evenodd" clip-rule="evenodd" d="M5.31599 16.0575C5.37525 16.1893 5.47133 16.3012 5.59268 16.3797C5.71402 16.4582 5.85547 16.5 5.99999 16.5H18C18.1446 16.5 18.2861 16.4583 18.4075 16.3798C18.5289 16.3013 18.625 16.1894 18.6843 16.0575C18.7435 15.9256 18.7634 15.7795 18.7416 15.6365C18.7197 15.4936 18.657 15.3601 18.561 15.252L12.561 8.502C12.4906 8.42269 12.4042 8.3592 12.3075 8.31573C12.2108 8.27225 12.106 8.24977 12 8.24977C11.894 8.24977 11.7891 8.27225 11.6924 8.31573C11.5957 8.3592 11.5094 8.42269 11.439 8.502L5.43899 15.252C5.34304 15.3601 5.28039 15.4937 5.25856 15.6366C5.23674 15.7795 5.25669 15.9257 5.31599 16.0575Z" fill="white"/>
</svg>
