<svg width="50" height="50" viewBox="0 0 50 50" fill="none" xmlns="http://www.w3.org/2000/svg">
<path fill-rule="evenodd" clip-rule="evenodd" d="M26.4353 33.2344V26.0219C26.4353 23.6813 28.1206 21.7781 30.1971 21.7781H44.0118V17.2844C44.0118 15.1531 42.8235 13.3719 41.1971 12.7906V12.7938L36.3412 12.75L36.2823 12.5688H14.4853L14.0706 12.7188L6.38235 12.7125L6.36764 12.6469C4.49706 13.0219 2.99117 14.8219 2.99117 17.1375V41.9906C2.99117 44.5906 4.89706 46.85 7.08235 46.85H40.0647C42.25 46.85 44.0147 44.7375 44.0147 42.1375V37.5969H30.2C28.1235 37.5969 26.4353 35.575 26.4353 33.2344Z" fill="#F3F2F1"/>
<path fill-rule="evenodd" clip-rule="evenodd" d="M47.0471 25.1906H32.3206C30.7647 25.1906 29.503 26.6531 29.503 28.4563V31.0063C29.503 32.8063 30.7647 34.2688 32.3206 34.2688H47.0471C48.603 34.2688 49.8677 32.8063 49.8677 31.0063V28.4563C49.8677 26.65 48.603 25.1906 47.0471 25.1906ZM38.3265 31.3H32.2618V28.125H38.3265V31.3Z" fill="#F3F2F1"/>
<path fill-rule="evenodd" clip-rule="evenodd" d="M14.4883 12.5688L33.9912 5.47813L36.2853 12.5688H40.0647C40.4618 12.5688 40.8383 12.6594 41.2 12.7875L37.1147 0.159378L6.02649 11.1625L6.37061 12.65C6.60296 12.6031 6.8412 12.5719 7.08237 12.5719H14.4883V12.5688Z" fill="#F3F2F1"/>
</svg>
